<mxfile host="app.diagrams.net" agent="Mozilla/5.0 (Windows NT 10.0; Win64; x64) AppleWebKit/537.36 (KHTML, like Gecko) Chrome/131.0.0.0 Safari/537.36" version="25.0.3">
  <diagram name="Page-1" id="4xOChYEYhZE_vkTnkbMG">
    <mxGraphModel dx="1834" dy="830" grid="0" gridSize="10" guides="1" tooltips="1" connect="1" arrows="1" fold="1" page="0" pageScale="1" pageWidth="850" pageHeight="1100" math="0" shadow="0">
      <root>
        <mxCell id="0" />
        <mxCell id="1" parent="0" />
        <mxCell id="0iS0MHd1jBN1HxCbtgRZ-3" value="" style="edgeStyle=none;curved=1;rounded=0;orthogonalLoop=1;jettySize=auto;html=1;fontSize=12;startSize=8;endSize=8;" edge="1" parent="1" source="0iS0MHd1jBN1HxCbtgRZ-1" target="0iS0MHd1jBN1HxCbtgRZ-2">
          <mxGeometry relative="1" as="geometry" />
        </mxCell>
        <mxCell id="0iS0MHd1jBN1HxCbtgRZ-1" value="Start" style="rounded=1;whiteSpace=wrap;html=1;" vertex="1" parent="1">
          <mxGeometry width="120" height="60" as="geometry" />
        </mxCell>
        <mxCell id="0iS0MHd1jBN1HxCbtgRZ-7" style="edgeStyle=none;curved=1;rounded=0;orthogonalLoop=1;jettySize=auto;html=1;fontSize=12;startSize=8;endSize=8;entryX=0.389;entryY=0.05;entryDx=0;entryDy=0;entryPerimeter=0;" edge="1" parent="1" source="0iS0MHd1jBN1HxCbtgRZ-2" target="0iS0MHd1jBN1HxCbtgRZ-4">
          <mxGeometry relative="1" as="geometry">
            <mxPoint x="60" y="265" as="targetPoint" />
            <Array as="points">
              <mxPoint x="-238" y="120" />
            </Array>
          </mxGeometry>
        </mxCell>
        <mxCell id="0iS0MHd1jBN1HxCbtgRZ-10" value="" style="edgeStyle=none;curved=1;rounded=0;orthogonalLoop=1;jettySize=auto;html=1;fontSize=12;startSize=8;endSize=8;" edge="1" parent="1" source="0iS0MHd1jBN1HxCbtgRZ-2" target="0iS0MHd1jBN1HxCbtgRZ-5">
          <mxGeometry relative="1" as="geometry" />
        </mxCell>
        <mxCell id="0iS0MHd1jBN1HxCbtgRZ-2" value="Greet the user and ask them what type of array they want to create.&lt;div&gt;{&lt;/div&gt;&lt;div&gt;1. Integer&lt;/div&gt;&lt;div&gt;2.String&lt;/div&gt;&lt;div&gt;3.Float&lt;/div&gt;&lt;div&gt;}&lt;/div&gt;" style="rounded=0;whiteSpace=wrap;html=1;" vertex="1" parent="1">
          <mxGeometry x="-65.5" y="94" width="251" height="116" as="geometry" />
        </mxCell>
        <mxCell id="0iS0MHd1jBN1HxCbtgRZ-12" style="edgeStyle=none;curved=1;rounded=0;orthogonalLoop=1;jettySize=auto;html=1;entryX=0.5;entryY=0;entryDx=0;entryDy=0;fontSize=12;startSize=8;endSize=8;" edge="1" parent="1" source="0iS0MHd1jBN1HxCbtgRZ-4" target="0iS0MHd1jBN1HxCbtgRZ-11">
          <mxGeometry relative="1" as="geometry" />
        </mxCell>
        <mxCell id="0iS0MHd1jBN1HxCbtgRZ-4" value="&lt;div&gt;If Int:&lt;/div&gt;Ask them to choose the size of the array (1-25)&lt;div&gt;&lt;br&gt;&lt;/div&gt;&lt;div&gt;Ask them to fill up the arry (using a loop)&lt;/div&gt;" style="rounded=0;whiteSpace=wrap;html=1;" vertex="1" parent="1">
          <mxGeometry x="-381" y="210" width="144" height="101" as="geometry" />
        </mxCell>
        <mxCell id="0iS0MHd1jBN1HxCbtgRZ-13" value="" style="edgeStyle=none;curved=1;rounded=0;orthogonalLoop=1;jettySize=auto;html=1;fontSize=12;startSize=8;endSize=8;" edge="1" parent="1" source="0iS0MHd1jBN1HxCbtgRZ-5" target="0iS0MHd1jBN1HxCbtgRZ-11">
          <mxGeometry relative="1" as="geometry" />
        </mxCell>
        <mxCell id="0iS0MHd1jBN1HxCbtgRZ-5" value="&lt;div&gt;If String:&lt;/div&gt;Ask them to choose the size of the array (1-25)&lt;div&gt;&lt;br&gt;&lt;/div&gt;&lt;div&gt;Ask them to fill up the arry (using a loop)&lt;/div&gt;" style="rounded=0;whiteSpace=wrap;html=1;" vertex="1" parent="1">
          <mxGeometry x="-16" y="259" width="152" height="109" as="geometry" />
        </mxCell>
        <mxCell id="0iS0MHd1jBN1HxCbtgRZ-14" style="edgeStyle=none;curved=1;rounded=0;orthogonalLoop=1;jettySize=auto;html=1;entryX=0.5;entryY=0;entryDx=0;entryDy=0;fontSize=12;startSize=8;endSize=8;" edge="1" parent="1" source="0iS0MHd1jBN1HxCbtgRZ-6" target="0iS0MHd1jBN1HxCbtgRZ-11">
          <mxGeometry relative="1" as="geometry" />
        </mxCell>
        <mxCell id="0iS0MHd1jBN1HxCbtgRZ-6" value="&lt;div&gt;If float&lt;/div&gt;Ask them to choose the size of the array (1-25)&lt;div&gt;&lt;br&gt;&lt;/div&gt;&lt;div&gt;Ask them to fill up the arry (using a loop)&lt;/div&gt;" style="rounded=0;whiteSpace=wrap;html=1;" vertex="1" parent="1">
          <mxGeometry x="355" y="210" width="160" height="111" as="geometry" />
        </mxCell>
        <mxCell id="0iS0MHd1jBN1HxCbtgRZ-9" style="edgeStyle=none;curved=1;rounded=0;orthogonalLoop=1;jettySize=auto;html=1;exitX=0.994;exitY=0.422;exitDx=0;exitDy=0;entryX=0.575;entryY=0.045;entryDx=0;entryDy=0;entryPerimeter=0;fontSize=12;startSize=8;endSize=8;exitPerimeter=0;" edge="1" parent="1" source="0iS0MHd1jBN1HxCbtgRZ-2" target="0iS0MHd1jBN1HxCbtgRZ-6">
          <mxGeometry relative="1" as="geometry">
            <Array as="points">
              <mxPoint x="342" y="110" />
            </Array>
          </mxGeometry>
        </mxCell>
        <mxCell id="0iS0MHd1jBN1HxCbtgRZ-11" value="PRINT THE ARRAY" style="rounded=0;whiteSpace=wrap;html=1;" vertex="1" parent="1">
          <mxGeometry y="417" width="120" height="60" as="geometry" />
        </mxCell>
      </root>
    </mxGraphModel>
  </diagram>
</mxfile>
